<?xml version="1.0" encoding="UTF-8"?>
<!DOCTYPE svg PUBLIC "-//W3C//DTD SVG 1.1//EN" "http://www.w3.org/Graphics/SVG/1.1/DTD/svg11.dtd">
<svg xmlns="http://www.w3.org/2000/svg" version="1.1" width="62px" height="77px" style="shape-rendering:geometricPrecision; text-rendering:geometricPrecision; image-rendering:optimizeQuality; fill-rule:evenodd; clip-rule:evenodd" xmlns:xlink="http://www.w3.org/1999/xlink">
<g><path style="opacity:0.692" fill="#e2b772" d="M 24.5,-0.5 C 25.5,-0.5 26.5,-0.5 27.5,-0.5C 27.8333,0.833333 28.1667,2.16667 28.5,3.5C 27.8826,3.38929 27.3826,3.05596 27,2.5C 27.3673,5.66522 27.2006,8.66522 26.5,11.5C 26.821,8.42307 25.821,6.08974 23.5,4.5C 23.6107,3.88258 23.944,3.38258 24.5,3C 20.5698,2.75845 16.9032,1.92512 13.5,0.5C 16.0379,0.507204 18.5379,0.840538 21,1.5C 22.6991,1.61345 23.8658,0.94678 24.5,-0.5 Z"/></g>
<g><path style="opacity:0.91" fill="#dba03c" d="M 2.5,-0.5 C 3.5,-0.5 4.5,-0.5 5.5,-0.5C 5.83333,0.166667 6.16667,0.833333 6.5,1.5C 7.60048,2.60486 8.26714,3.93819 8.5,5.5C 7.50838,5.67158 6.84171,5.33825 6.5,4.5C 6.18897,3.52216 5.5223,2.85549 4.5,2.5C 3.05625,4.60791 2.38958,6.94125 2.5,9.5C 2.5,10.1667 2.5,10.8333 2.5,11.5C 2.5,11.8333 2.5,12.1667 2.5,12.5C 2.20528,14.7354 2.53862,16.7354 3.5,18.5C 3.66331,20.8568 3.49665,23.1902 3,25.5C 2.60966,22.8958 1.77633,20.5625 0.5,18.5C 0.123005,12.6772 0.789672,7.0105 2.5,1.5C 2.5,0.833333 2.5,0.166667 2.5,-0.5 Z"/></g>
<g><path style="opacity:0.118" fill="#dfaa50" d="M 13.5,0.5 C 16.9032,1.92512 20.5698,2.75845 24.5,3C 23.944,3.38258 23.6107,3.88258 23.5,4.5C 18.6193,4.40296 13.6193,4.7363 8.5,5.5C 8.26714,3.93819 7.60048,2.60486 6.5,1.5C 8.90291,1.55195 11.2362,1.21862 13.5,0.5 Z"/></g>
<g><path style="opacity:0.914" fill="#dba13e" d="M 28.5,3.5 C 28.5,3.83333 28.5,4.16667 28.5,4.5C 29.1621,8.46591 29.4955,12.4659 29.5,16.5C 28.7784,16.9175 28.2784,17.5842 28,18.5C 27.79,16.9419 27.29,15.6085 26.5,14.5C 26.5,13.5 26.5,12.5 26.5,11.5C 27.2006,8.66522 27.3673,5.66522 27,2.5C 27.3826,3.05596 27.8826,3.38929 28.5,3.5 Z"/></g>
<g><path style="opacity:0.047" fill="#e1bc7f" d="M 2.5,1.5 C 0.789672,7.0105 0.123005,12.6772 0.5,18.5C 0.166667,18.5 -0.166667,18.5 -0.5,18.5C -0.5,14.1667 -0.5,9.83333 -0.5,5.5C 0.142944,3.92359 1.14294,2.59026 2.5,1.5 Z"/></g>
<g><path style="opacity:0.369" fill="#e9c892" d="M 6.5,4.5 C 4.87929,4.7869 3.87929,5.7869 3.5,7.5C 3.96983,8.46295 4.6365,8.46295 5.5,7.5C 5.5,8.16667 5.5,8.83333 5.5,9.5C 4.5,9.5 3.5,9.5 2.5,9.5C 2.38958,6.94125 3.05625,4.60791 4.5,2.5C 5.5223,2.85549 6.18897,3.52216 6.5,4.5 Z"/></g>
<g><path style="opacity:0.218" fill="#daa448" d="M 10.5,6.5 C 12.2156,10.7619 11.3823,11.4286 8,8.5C 7.09789,8.74325 6.26456,9.07658 5.5,9.5C 5.5,8.83333 5.5,8.16667 5.5,7.5C 7.04181,6.69929 8.70848,6.36596 10.5,6.5 Z"/></g>
<g><path style="opacity:0.212" fill="#e9c68d" d="M 28.5,4.5 C 29.9256,6.6789 30.5922,9.1789 30.5,12C 30.4915,13.7067 30.1582,15.2067 29.5,16.5C 29.4955,12.4659 29.1621,8.46591 28.5,4.5 Z"/></g>
<g><path style="opacity:1" fill="#edcd9a" d="M 10.5,6.5 C 12.4484,8.32044 13.4484,10.6538 13.5,13.5C 12.7784,13.0825 12.2784,12.4158 12,11.5C 8.41086,15.761 6.24419,15.0944 5.5,9.5C 6.26456,9.07658 7.09789,8.74325 8,8.5C 11.3823,11.4286 12.2156,10.7619 10.5,6.5 Z"/></g>
<g><path style="opacity:0.714" fill="#dfac57" d="M 17.5,15.5 C 16.0687,16.7804 15.4021,18.4471 15.5,20.5C 14.2223,20.2178 13.2223,19.5511 12.5,18.5C 12.762,17.0222 12.4287,15.6888 11.5,14.5C 10.8933,14.6236 10.56,14.9569 10.5,15.5C 7.78801,16.9874 5.62135,16.3207 4,13.5C 3.50649,15.1341 3.33982,16.8008 3.5,18.5C 2.53862,16.7354 2.20528,14.7354 2.5,12.5C 3.83333,12.1667 3.83333,11.8333 2.5,11.5C 2.5,10.8333 2.5,10.1667 2.5,9.5C 3.5,9.5 4.5,9.5 5.5,9.5C 6.24419,15.0944 8.41086,15.761 12,11.5C 12.2784,12.4158 12.7784,13.0825 13.5,13.5C 13.281,14.675 13.6143,15.675 14.5,16.5C 16.1713,14.4902 16.838,12.1569 16.5,9.5C 16.5587,7.27761 17.7253,6.27761 20,6.5C 25.7947,7.60292 26.9614,10.6029 23.5,15.5C 21.5184,16.6225 19.5184,16.6225 17.5,15.5 Z"/></g>
<g><path style="opacity:1" fill="#f1d9b2" d="M 19.5,8.5 C 23.1612,8.35012 24.1612,9.85012 22.5,13C 21.2068,13.49 19.8734,13.6567 18.5,13.5C 18.366,11.7085 18.6993,10.0418 19.5,8.5 Z"/></g>
<g><path style="opacity:1" fill="#d69221" d="M 7.5,10.5 C 9.33702,10.6395 9.67036,11.3061 8.5,12.5C 7.70245,12.0431 7.36912,11.3764 7.5,10.5 Z"/></g>
<g><path style="opacity:1" fill="#d6942a" d="M 20.5,9.5 C 21.7759,10.3864 21.7759,11.3864 20.5,12.5C 19.4376,11.5754 19.4376,10.5754 20.5,9.5 Z"/></g>
<g><path style="opacity:0.314" fill="#e4c288" d="M 16.5,9.5 C 16.838,12.1569 16.1713,14.4902 14.5,16.5C 13.6143,15.675 13.281,14.675 13.5,13.5C 14.9779,12.5525 15.9779,11.2191 16.5,9.5 Z"/></g>
<g><path style="opacity:0.012" fill="#ebd3a7" d="M 10.5,15.5 C 10.56,14.9569 10.8933,14.6236 11.5,14.5C 12.4287,15.6888 12.762,17.0222 12.5,18.5C 11.8333,17.5 11.1667,16.5 10.5,15.5 Z"/></g>
<g><path style="opacity:0.22" fill="#eed7a9" d="M 17.5,15.5 C 17.5979,17.5529 16.9313,19.2196 15.5,20.5C 15.4021,18.4471 16.0687,16.7804 17.5,15.5 Z"/></g>
<g><path style="opacity:0.788" fill="#e1b770" d="M 26.5,14.5 C 27.29,15.6085 27.79,16.9419 28,18.5C 28.2784,17.5842 28.7784,16.9175 29.5,16.5C 29.67,17.8221 29.3366,18.9887 28.5,20C 30.3197,20.2004 31.653,21.0337 32.5,22.5C 30.1789,22.3417 28.3455,21.3417 27,19.5C 26.6174,20.056 26.1174,20.3893 25.5,20.5C 26.1495,18.5648 26.4828,16.5648 26.5,14.5 Z"/></g>
<g><path style="opacity:0.353" fill="#ead1a4" d="M 12.5,18.5 C 13.2223,19.5511 14.2223,20.2178 15.5,20.5C 15.4827,22.0281 14.816,22.5281 13.5,22C 12.6634,20.9887 12.33,19.8221 12.5,18.5 Z"/></g>
<g><path style="opacity:0.231" fill="#e2b56b" d="M 32.5,22.5 C 36.0495,23.7232 39.0495,25.7232 41.5,28.5C 37.9754,27.2411 34.9754,25.2411 32.5,22.5 Z"/></g>
<g><path style="opacity:0.784" fill="#deab53" d="M 22.5,23.5 C 23.625,24.3478 23.625,25.3478 22.5,26.5C 16.7821,30.7238 11.4487,30.3904 6.5,25.5C 6.84171,24.6618 7.50838,24.3284 8.5,24.5C 13.31,25.9814 17.9766,25.6481 22.5,23.5 Z"/></g>
<g><path style="opacity:0.016" fill="#e7c286" d="M 41.5,28.5 C 44.8333,29.8333 47.1667,32.1667 48.5,35.5C 45.8333,33.5 43.5,31.1667 41.5,28.5 Z"/></g>
<g><path style="opacity:0.933" fill="#e5b974" d="M 0.5,18.5 C 1.77633,20.5625 2.60966,22.8958 3,25.5C 3.49665,23.1902 3.66331,20.8568 3.5,18.5C 4.70069,20.9095 6.36735,22.9095 8.5,24.5C 7.50838,24.3284 6.84171,24.6618 6.5,25.5C 5.95691,25.56 5.62358,25.8933 5.5,26.5C 7.11998,29.4037 8.45331,32.4037 9.5,35.5C 7.79734,34.3398 7.13068,35.0065 7.5,37.5C 3.40445,31.8864 1.07112,25.5531 0.5,18.5 Z"/></g>
<g><path style="opacity:0.648" fill="#e0b977" d="M 25.5,20.5 C 24.6713,24.2089 24.0047,28.2089 23.5,32.5C 23.6144,35.2175 23.9477,37.8841 24.5,40.5C 22.7606,38.6251 21.7606,36.2918 21.5,33.5C 22.2234,31.2178 22.5567,28.8845 22.5,26.5C 23.625,25.3478 23.625,24.3478 22.5,23.5C 23.1667,22.1667 24.1667,21.1667 25.5,20.5 Z"/></g>
<g><path style="opacity:1" fill="#da9c31" d="M 32.5,22.5 C 34.9754,25.2411 37.9754,27.2411 41.5,28.5C 43.5,31.1667 45.8333,33.5 48.5,35.5C 48.5569,36.609 48.8902,37.609 49.5,38.5C 48.8333,38.5 48.1667,38.5 47.5,38.5C 47.2624,36.5956 46.2624,35.2623 44.5,34.5C 43.4154,32.4131 41.7488,31.0798 39.5,30.5C 37.5156,27.8361 34.8489,26.1695 31.5,25.5C 30.5041,25.5858 29.6708,25.2524 29,24.5C 28.1482,25.5707 27.3149,26.5707 26.5,27.5C 23.8333,31.1667 23.8333,34.8333 26.5,38.5C 27.3382,38.8417 27.6716,39.5084 27.5,40.5C 27.5569,41.609 27.8902,42.609 28.5,43.5C 27.8333,43.5 27.1667,43.5 26.5,43.5C 26.573,41.9731 25.9063,40.9731 24.5,40.5C 23.9477,37.8841 23.6144,35.2175 23.5,32.5C 24.0047,28.2089 24.6713,24.2089 25.5,20.5C 26.1174,20.3893 26.6174,20.056 27,19.5C 28.3455,21.3417 30.1789,22.3417 32.5,22.5 Z"/></g>
<g><path style="opacity:0.412" fill="#e6bf7c" d="M 26.5,27.5 C 25.4612,31.2062 25.4612,34.8729 26.5,38.5C 23.8333,34.8333 23.8333,31.1667 26.5,27.5 Z"/></g>
<g><path style="opacity:0.443" fill="#e8c589" d="M 39.5,30.5 C 41.7488,31.0798 43.4154,32.4131 44.5,34.5C 42.2512,33.9202 40.5846,32.5869 39.5,30.5 Z"/></g>
<g><path style="opacity:0.514" fill="#e3b86f" d="M 31.5,25.5 C 34.8489,26.1695 37.5156,27.8361 39.5,30.5C 36.4887,29.3307 33.822,27.664 31.5,25.5 Z"/></g>
<g><path style="opacity:0.008" fill="#ecce9c" d="M 44.5,34.5 C 46.2624,35.2623 47.2624,36.5956 47.5,38.5C 45.7376,37.7377 44.7376,36.4044 44.5,34.5 Z"/></g>
<g><path style="opacity:0.639" fill="#e8c284" d="M 48.5,35.5 C 50.5869,36.5846 51.9202,38.2512 52.5,40.5C 51.5,39.8333 50.5,39.1667 49.5,38.5C 48.8902,37.609 48.5569,36.609 48.5,35.5 Z"/></g>
<g><path style="opacity:0.024" fill="#eac895" d="M 7.5,37.5 C 8.90632,37.9731 9.57298,38.9731 9.5,40.5C 8.09368,40.0269 7.42702,39.0269 7.5,37.5 Z"/></g>
<g><path style="opacity:0.863" fill="#e9c58b" d="M 47.5,38.5 C 48.1667,38.5 48.8333,38.5 49.5,38.5C 50.5,41.1667 51.5,43.8333 52.5,46.5C 50.347,44.2063 48.6803,41.5396 47.5,38.5 Z"/></g>
<g><path style="opacity:0.424" fill="#eacb94" d="M 10.5,37.5 C 11.9063,37.9731 12.573,38.9731 12.5,40.5C 11.0937,40.0269 10.427,39.0269 10.5,37.5 Z"/></g>
<g><path style="opacity:0.059" fill="#eccc9b" d="M 9.5,40.5 C 10.9063,40.9731 11.573,41.9731 11.5,43.5C 10.0937,43.0269 9.42702,42.0269 9.5,40.5 Z"/></g>
<g><path style="opacity:0.788" fill="#e7bd78" d="M 27.5,40.5 C 29.5,41.8333 31.1667,43.5 32.5,45.5C 30.9382,45.2671 29.6049,44.6005 28.5,43.5C 27.8902,42.609 27.5569,41.609 27.5,40.5 Z"/></g>
<g><path style="opacity:0.545" fill="#e8c384" d="M 12.5,40.5 C 14.5869,41.5846 15.9202,43.2512 16.5,45.5C 14.4131,44.4154 13.0798,42.7488 12.5,40.5 Z"/></g>
<g><path style="opacity:0.118" fill="#e6be80" d="M 24.5,40.5 C 25.9063,40.9731 26.573,41.9731 26.5,43.5C 25.0937,43.0269 24.427,42.0269 24.5,40.5 Z"/></g>
<g><path style="opacity:0.975" fill="#d99a2e" d="M 9.5,35.5 C 10.3382,35.8417 10.6716,36.5084 10.5,37.5C 10.427,39.0269 11.0937,40.0269 12.5,40.5C 13.0798,42.7488 14.4131,44.4154 16.5,45.5C 18.1667,46.5 19.5,47.8333 20.5,49.5C 21.5524,51.6551 20.8857,51.9884 18.5,50.5C 17.2241,51.6136 17.2241,52.6136 18.5,53.5C 18.5,53.8333 18.5,54.1667 18.5,54.5C 17.0755,56.0311 16.4088,55.6977 16.5,53.5C 17.4597,48.8071 15.7931,45.4738 11.5,43.5C 11.573,41.9731 10.9063,40.9731 9.5,40.5C 9.57298,38.9731 8.90632,37.9731 7.5,37.5C 7.13068,35.0065 7.79734,34.3398 9.5,35.5 Z"/></g>
<g><path style="opacity:0.988" fill="#db9f3a" d="M 49.5,38.5 C 50.5,39.1667 51.5,39.8333 52.5,40.5C 53.3382,40.8417 53.6716,41.5084 53.5,42.5C 53.427,44.0269 54.0937,45.0269 55.5,45.5C 55.6287,47.2161 55.962,48.8828 56.5,50.5C 56.5654,50.9382 56.3988,51.2716 56,51.5C 55.1482,50.4293 54.3149,49.4293 53.5,48.5C 52.6618,48.1583 52.3284,47.4916 52.5,46.5C 51.5,43.8333 50.5,41.1667 49.5,38.5 Z"/></g>
<g><path style="opacity:0.235" fill="#ebcb94" d="M 53.5,42.5 C 54.9063,42.9731 55.573,43.9731 55.5,45.5C 54.0937,45.0269 53.427,44.0269 53.5,42.5 Z"/></g>
<g><path style="opacity:0.043" fill="#e6c182" d="M 11.5,43.5 C 15.7931,45.4738 17.4597,48.8071 16.5,53.5C 16.1667,53.5 15.8333,53.5 15.5,53.5C 15.6602,51.8008 15.4935,50.1341 15,48.5C 13.1978,47.2107 12.0312,45.5441 11.5,43.5 Z"/></g>
<g><path style="opacity:0.122" fill="#f1dab5" d="M 55.5,45.5 C 56.9313,46.7804 57.5979,48.4471 57.5,50.5C 57.1667,50.5 56.8333,50.5 56.5,50.5C 55.962,48.8828 55.6287,47.2161 55.5,45.5 Z"/></g>
<g><path style="opacity:0.024" fill="#e4c081" d="M 39.5,51.5 C 41.0269,51.427 42.0269,52.0937 42.5,53.5C 40.9731,53.573 39.9731,52.9063 39.5,51.5 Z"/></g>
<g><path style="opacity:0.935" fill="#e4b875" d="M 53.5,48.5 C 54.3149,49.4293 55.1482,50.4293 56,51.5C 56.3988,51.2716 56.5654,50.9382 56.5,50.5C 56.8333,50.5 57.1667,50.5 57.5,50.5C 58.9313,51.7804 59.5979,53.4471 59.5,55.5C 58.6851,54.5707 57.8518,53.5707 57,52.5C 56.5172,53.448 56.3505,54.448 56.5,55.5C 54.7073,53.5739 53.7073,51.2406 53.5,48.5 Z"/></g>
<g><path style="opacity:1" fill="#dfab55" d="M 26.5,43.5 C 27.1667,43.5 27.8333,43.5 28.5,43.5C 29.6049,44.6005 30.9382,45.2671 32.5,45.5C 35.4323,46.7997 37.7656,48.7997 39.5,51.5C 39.9731,52.9063 40.9731,53.573 42.5,53.5C 45.6803,55.2549 48.6803,57.2549 51.5,59.5C 50.791,60.404 49.791,60.7373 48.5,60.5C 40.0193,56.3568 32.686,50.6901 26.5,43.5 Z"/></g>
<g><path style="opacity:0.506" fill="#e8ca99" d="M 40.5,60.5 C 39.8333,60.5 39.1667,60.5 38.5,60.5C 37.8783,59.3734 37.045,58.3734 36,57.5C 35.8019,59.3817 35.3019,61.0484 34.5,62.5C 33.1082,53.8929 35.1082,53.2262 40.5,60.5 Z"/></g>
<g><path style="opacity:0.639" fill="#e9c386" d="M 59.5,55.5 C 60.1667,56.5 60.8333,57.5 61.5,58.5C 61.5,59.8333 61.5,61.1667 61.5,62.5C 60.0762,60.4855 59.4095,58.1522 59.5,55.5 Z"/></g>
<g><path style="opacity:0.008" fill="#e6bf80" d="M 56.5,57.5 C 58.6102,59.3276 59.4435,61.6609 59,64.5C 57.4815,63.8366 56.3149,62.8366 55.5,61.5C 56.3764,61.6309 57.0431,61.2975 57.5,60.5C 56.8728,59.5832 56.5394,58.5832 56.5,57.5 Z"/></g>
<g><path style="opacity:0.996" fill="#d89a2f" d="M 27.5,57.5 C 27.0773,59.7812 27.744,61.4479 29.5,62.5C 31.1667,61.1667 32.8333,61.1667 34.5,62.5C 35.3019,61.0484 35.8019,59.3817 36,57.5C 37.045,58.3734 37.8783,59.3734 38.5,60.5C 36.9519,60.8212 36.2852,61.8212 36.5,63.5C 35.0413,63.4326 33.7079,63.7659 32.5,64.5C 31.2223,64.7822 30.2223,65.4489 29.5,66.5C 29.1898,64.8564 28.1898,63.8564 26.5,63.5C 25.871,61.5351 25.2043,59.5351 24.5,57.5C 24.6667,56.5 24.8333,55.5 25,54.5C 25.8518,55.5707 26.6851,56.5707 27.5,57.5 Z"/></g>
<g><path style="opacity:0.82" fill="#e7bb77" d="M 27.5,57.5 C 28.5375,58.9303 29.2041,60.597 29.5,62.5C 27.744,61.4479 27.0773,59.7812 27.5,57.5 Z"/></g>
<g><path style="opacity:0.502" fill="#e2b469" d="M 20.5,49.5 C 24.2736,50.9382 26.6069,53.6049 27.5,57.5C 26.6851,56.5707 25.8518,55.5707 25,54.5C 24.8333,55.5 24.6667,56.5 24.5,57.5C 25.2043,59.5351 25.871,61.5351 26.5,63.5C 23.8036,64.7398 21.4702,66.4065 19.5,68.5C 19.7852,66.712 19.4519,65.0453 18.5,63.5C 17.8182,64.2427 17.1515,64.9094 16.5,65.5C 14.2663,61.7176 13.933,57.7176 15.5,53.5C 15.8333,53.5 16.1667,53.5 16.5,53.5C 16.4088,55.6977 17.0755,56.0311 18.5,54.5C 18.5668,56.4008 18.2335,58.2341 17.5,60C 18.619,61.876 20.2856,62.7093 22.5,62.5C 22.4332,60.5992 22.7665,58.7659 23.5,57C 22.0218,55.5218 20.5218,54.0218 19,52.5C 18.6012,52.7284 18.4346,53.0618 18.5,53.5C 17.2241,52.6136 17.2241,51.6136 18.5,50.5C 20.8857,51.9884 21.5524,51.6551 20.5,49.5 Z M 18.5,54.5 C 18.5,54.1667 18.5,53.8333 18.5,53.5C 18.4346,53.0618 18.6012,52.7284 19,52.5C 20.5218,54.0218 22.0218,55.5218 23.5,57C 22.7665,58.7659 22.4332,60.5992 22.5,62.5C 20.2856,62.7093 18.619,61.876 17.5,60C 18.2335,58.2341 18.5668,56.4008 18.5,54.5 Z"/></g>
<g><path style="opacity:0.306" fill="#e7cb9b" d="M 26.5,63.5 C 28.1898,63.8564 29.1898,64.8564 29.5,66.5C 29.0679,67.7095 28.4013,68.7095 27.5,69.5C 27.33,68.1779 27.6634,67.0113 28.5,66C 27.244,65.5831 26.5774,64.7498 26.5,63.5 Z"/></g>
<g><path style="opacity:0.988" fill="#da9e37" d="M 59.5,55.5 C 59.4095,58.1522 60.0762,60.4855 61.5,62.5C 61.5,64.5 61.5,66.5 61.5,68.5C 60.2905,68.0679 59.2905,67.4013 58.5,66.5C 57.8595,64.668 56.8595,64.3347 55.5,65.5C 56.8146,67.1986 56.8146,68.8653 55.5,70.5C 55.1667,70.5 54.8333,70.5 54.5,70.5C 50.6983,71.1197 47.365,70.2863 44.5,68C 47.7462,68.3165 51.0795,68.4832 54.5,68.5C 54.683,66.0637 54.0163,63.897 52.5,62C 53.448,61.5172 54.448,61.3505 55.5,61.5C 56.3149,62.8366 57.4815,63.8366 59,64.5C 59.4435,61.6609 58.6102,59.3276 56.5,57.5C 56.5,56.8333 56.5,56.1667 56.5,55.5C 56.3505,54.448 56.5172,53.448 57,52.5C 57.8518,53.5707 58.6851,54.5707 59.5,55.5 Z"/></g>
<g><path style="opacity:0.827" fill="#e2b364" d="M 51.5,59.5 C 53.153,59.6596 54.4863,60.3263 55.5,61.5C 54.448,61.3505 53.448,61.5172 52.5,62C 54.0163,63.897 54.683,66.0637 54.5,68.5C 51.0795,68.4832 47.7462,68.3165 44.5,68C 47.365,70.2863 50.6983,71.1197 54.5,70.5C 51.6965,71.6378 48.6965,71.8045 45.5,71C 42.8824,68.2605 40.3824,65.4272 38,62.5C 37.4115,64.8633 35.9115,65.8633 33.5,65.5C 33.233,67.9653 32.5664,70.2986 31.5,72.5C 31.1034,73.525 30.4368,73.6917 29.5,73C 30.9292,70.3103 31.9292,67.4769 32.5,64.5C 33.7079,63.7659 35.0413,63.4326 36.5,63.5C 36.2852,61.8212 36.9519,60.8212 38.5,60.5C 39.1667,60.5 39.8333,60.5 40.5,60.5C 42.5,61.976 44.1666,63.8094 45.5,66C 55.0135,68.5646 56.0135,66.7313 48.5,60.5C 49.791,60.7373 50.791,60.404 51.5,59.5 Z"/></g>
<g><path style="opacity:0.149" fill="#eacd9c" d="M 58.5,66.5 C 57.9779,68.2191 56.9779,69.5525 55.5,70.5C 56.8146,68.8653 56.8146,67.1986 55.5,65.5C 56.8595,64.3347 57.8595,64.668 58.5,66.5 Z"/></g>
<g><path style="opacity:0.322" fill="#e6c794" d="M 16.5,65.5 C 15.9213,68.3311 14.588,70.6644 12.5,72.5C 13.0787,69.6689 14.412,67.3356 16.5,65.5 Z"/></g>
<g><path style="opacity:0.921" fill="#d89b30" d="M 19.5,68.5 C 17.3176,69.8233 16.6509,71.4899 17.5,73.5C 18.1667,73.5 18.5,73.1667 18.5,72.5C 20.8333,72.5 23.1667,72.5 25.5,72.5C 27.0481,72.1788 27.7148,71.1788 27.5,69.5C 28.4013,68.7095 29.0679,67.7095 29.5,66.5C 30.2223,65.4489 31.2223,64.7822 32.5,64.5C 31.9292,67.4769 30.9292,70.3103 29.5,73C 30.4368,73.6917 31.1034,73.525 31.5,72.5C 35.483,71.5715 38.1497,72.9049 39.5,76.5C 26.1667,76.5 12.8333,76.5 -0.5,76.5C -0.5,75.8333 -0.5,75.1667 -0.5,74.5C 0.28913,74.2172 0.955796,73.7172 1.5,73C 5.36571,72.7022 9.03238,72.5355 12.5,72.5C 14.588,70.6644 15.9213,68.3311 16.5,65.5C 17.1515,64.9094 17.8182,64.2427 18.5,63.5C 19.4519,65.0453 19.7852,66.712 19.5,68.5 Z"/></g>
<g><path style="opacity:0.522" fill="#e4c99a" d="M 27.5,69.5 C 27.7148,71.1788 27.0481,72.1788 25.5,72.5C 25.9321,71.2905 26.5987,70.2905 27.5,69.5 Z"/></g>
<g><path style="opacity:0.02" fill="#efd2a1" d="M 19.5,68.5 C 19.1667,69.8333 18.8333,71.1667 18.5,72.5C 17.8333,72.5 17.5,72.8333 17.5,73.5C 16.6509,71.4899 17.3176,69.8233 19.5,68.5 Z"/></g>
</svg>
